<svg xmlns="http://www.w3.org/2000/svg" width="22" height="14" viewBox="0 0 640 280">
  <path d="
    M 60,140
    C 60,100 80,75 115,75
    C 145,75 165,90 178,115
    C 185,128 190,132 198,132
    C 206,132 215,120 225,100
    C 245,60 265,38 295,38
    C 330,38 348,58 358,85
    C 365,105 370,118 378,122
    C 386,118 395,95 405,70
    C 420,30 445,5 480,5
    C 525,5 545,40 545,90
    C 545,145 515,180 470,180
    C 440,180 418,168 405,148
    C 395,160 386,165 378,165
    C 370,165 362,155 355,140
    C 340,170 315,195 285,195
    C 250,195 230,175 220,155
    C 212,165 206,168 198,168
    C 190,168 183,160 175,148
    C 160,175 140,195 110,195
    C 75,195 60,170 60,140
    Z"
    fill="black"/>
  <circle cx="570" cy="210" r="48" fill="black"/>
</svg>
