<svg xmlns="http://www.w3.org/2000/svg" width="22" height="16" viewBox="-30 -50 820 530">
  <g transform="translate(370, 210) rotate(-6) translate(-370, -210)">
    <!-- Letter "u" -->
    <path d="
      M 42,40
      C 42,18 58,0 82,0
      C 106,0 122,18 122,40
      L 122,210
      C 122,272 155,308 205,308
      C 255,308 288,272 288,210
      L 288,40
      C 288,18 304,0 328,0
      C 352,0 368,18 368,40
      L 368,220
      C 368,340 300,408 205,408
      C 110,408 42,340 42,220
      Z"
      fill="black"
      stroke="black" stroke-width="12" stroke-linejoin="round" stroke-linecap="round"/>
    <!-- Letter "p" -->
    <path d="
      M 400,40
      C 400,18 416,0 440,0
      C 464,0 480,18 480,40
      L 480,60
      C 500,22 536,-6 585,-6
      C 660,-6 715,62 715,168
      C 715,274 660,342 585,342
      C 538,342 502,316 480,280
      L 480,388
      C 480,410 464,428 440,428
      C 416,428 400,410 400,388
      Z
      M 565,264
      C 608,264 636,226 636,168
      C 636,110 608,72 565,72
      C 522,72 480,110 480,168
      C 480,226 522,264 565,264
      Z"
      fill="black"
      stroke="black" stroke-width="12" stroke-linejoin="round" stroke-linecap="round"/>
  </g>
</svg>
